<svg xmlns="http://www.w3.org/2000/svg" width="174" height="40" viewBox="0 0 174 40">
    <g fill="none" fill-rule="evenodd">
        <path fill="#00A0E9" d="M28.817 35.338c-1.12 0-2.158-.33-3.034-.892-.022.015-.043.033-.065.048-2.723 1.891-5.69 3.104-8.44 3.113-.145 0-.291-.002-.433-.009-2.04-.09-3.599-.918-4.585-2.021-.992-1.103-1.443-2.416-1.49-3.56-.006-.09-.008-.185-.008-.284.036-3.384 2.347-7.043 5.509-10.02 3.176-2.945 7.267-5.203 11.286-5.246l.06-.002c1.866-.005 3.46.615 4.55 1.719 1.094 1.1 1.644 2.629 1.641 4.265 0 1.137-.256 2.333-.767 3.536.872.993 1.405 2.29 1.405 3.715 0 3.112-2.52 5.638-5.629 5.638z"/>
        <g fill="#FFF" fill-rule="nonzero">
            <path d="M159.81 26.221l-.686-3.062-.006-.024c-.127-.608-.668-1.063-1.316-1.063h-1.674l.93 4.15h2.753zm-.587 11.138c.49-3.23 1.296-8.557 1.296-8.57-.03-.72-.618-1.296-1.345-1.296h-3.21v2.124h1.802l-1.455 8.62c-.007.06-.017.123-.017.192l.002.006c.005.743.605 1.344 1.347 1.344h15.425c.367 0 .662-.302.662-.665v-1.755h-14.507zm-22.2.836c.018.878.765 1.583 1.69 1.583h14.11c.383 0 .696-.301.696-.665v-8.321h-16.496v7.403zm3.55-4.617h9.369v3.78h-9.368v-3.78zm12.817-8.783l-.006-.023c-.13-.609-.67-1.064-1.32-1.064h-2.34l.74 2.886h-10.04l4.032-5.177h-4.162s-2.39 3.076-3.297 4.413c-1.336 1.968.071 3.12 1.276 3.12h14.457c.745 0 1.35-.604 1.35-1.348 0-.095-.01-.191-.033-.287l-.657-2.52zm8.196 11.391h3.35l2.221-8.26 1.975 7.311c.271.561.86.95 1.545.95h2.912v-1.919h-1.379l-1.832-6.826h2.88v-2.454h-5.307l.968-3.617h-3.355l-.97 3.617h-3.448v2.454h2.789l-2.349 8.744zM115.235 25.247c.041-.042.064-.099.064-.157v-3.393c0-.124-.099-.222-.222-.222l-15.803-.02c-.057 0-.115.024-.157.066-.042.041-.065.099-.065.158v3.429c0 .058.023.116.065.158.042.042.1.066.157.066h5.328v14.35c0 .06.024.117.066.159.042.042.1.065.16.065h4.035c.204-.003.434-.07.625-.236.18-.152.328-.413.325-.782V25.315l5.264-.002c.058 0 .116-.025.158-.066zM87.108 36.293c0-.059-.025-.116-.066-.158-.04-.042-.1-.065-.157-.065H76.89v-4.037h8.616c.06 0 .116-.023.158-.066.042-.04.064-.098.064-.157v-3.402c0-.06-.023-.115-.064-.157-.041-.043-.098-.066-.158-.066h-8.585v-2.82h9.963c.059 0 .115-.023.157-.065.041-.042.066-.098.066-.158V21.68c0-.06-.025-.115-.066-.159-.042-.042-.098-.065-.157-.065H71.7c-.059 0-.116.023-.156.065-.043.042-.067.1-.067.16v16.105c-.001.68.341 1.218.802 1.589.464.372 1.043.57 1.512.573h12.315c.256-.004.494-.134.692-.317.1-.09.17-.188.218-.273.026-.042.044-.083.06-.118.013-.043.027-.054.03-.137V36.293h.001zm15.87.04c0-.058-.022-.114-.064-.156-.042-.043-.098-.066-.158-.066h-8.723l.002-14.418c0-.06-.025-.116-.067-.158-.042-.042-.098-.066-.157-.066h-4.803c-.123 0-.225.1-.225.224V37.72c0 .813.35 1.366.796 1.718.451.354 1.004.508 1.42.51h11.121c.24-.008.434-.152.6-.36.165-.215.251-.439.26-.63V38.949l-.001-2.615zM66.054 29.53c-1.996-2.824-4.108-5.816-4.566-6.48l-.002-.003c-.26-.379-.605-.74-.884-.968-.727-.613-1.672-.983-2.699-.983-2.323 0-4.205 1.883-4.205 4.206v.001h-.002v6.411c0 3.338 0 6.94.002 7.999 0 .059.024.117.065.16.042.04.1.065.158.065h4.9c.058 0 .116-.025.157-.065.042-.043.066-.1.066-.16V28.529l5.26 7.57h-3.418c-.06 0-.117.025-.159.066-.042.043-.065.1-.065.159v3.388c0 .06.024.116.065.16.044.042.1.065.159.065h6.488c1.726 0 3.124-1.401 3.124-3.129 0-.667-.21-1.288-.566-1.795-.003-.007-1.88-2.66-3.878-5.484zm58.367-8.422c-1.03 0-1.973.37-2.704.985-.275.227-.622.589-.882.969-.457.662-2.569 3.656-4.567 6.48-1.995 2.824-3.875 5.478-3.878 5.482-.357.509-.566 1.13-.566 1.796 0 1.728 1.399 3.128 3.124 3.128h6.489c.06 0 .115-.023.158-.065.042-.042.064-.099.064-.158v-3.39c0-.058-.022-.114-.064-.157-.042-.042-.098-.065-.158-.065h-3.42l5.26-7.571.001 11.183c0 .059.024.116.066.159.041.041.099.064.157.064h4.9c.058 0 .115-.023.157-.065.043-.042.066-.099.066-.158v-14.41c0-2.324-1.882-4.207-4.203-4.207zM24.207.345L.134 39.948h48.027L24.207.345zM28.8 35.338c-1.12 0-2.158-.33-3.034-.892-.022.015-.043.033-.066.048-2.722 1.891-5.69 3.104-8.44 3.113-.145 0-.29-.002-.432-.009-2.041-.09-3.6-.918-4.585-2.021-.992-1.103-1.443-2.416-1.49-3.56-.006-.09-.009-.185-.009-.284.037-3.384 2.347-7.043 5.51-10.02 3.175-2.945 7.267-5.203 11.286-5.246l.06-.002c1.865-.005 3.459.615 4.55 1.719 1.094 1.1 1.644 2.629 1.641 4.265 0 1.137-.256 2.333-.767 3.536.872.993 1.405 2.29 1.405 3.715 0 3.112-2.52 5.638-5.63 5.638zm1.864-15.678c-.658-.658-1.638-1.095-3.064-1.1h-.04c-3.209.001-6.987 1.975-9.88 4.685-2.92 2.69-4.878 6.13-4.842 8.488 0 .058.002.12.005.193.023.658.318 1.55.951 2.244.638.695 1.586 1.254 3.135 1.335.11.005.22.008.331.008 2.028.009 4.57-.94 6.952-2.547-.657-.922-1.048-2.047-1.048-3.266 0-3.112 2.522-5.636 5.635-5.636.897 0 1.743.216 2.497.59.274-.785.401-1.531.4-2.205-.003-1.186-.378-2.127-1.032-2.789z"/>
        </g>
    </g>
</svg>
